<?xml version="1.0" encoding="UTF-8" standalone="no"?>
<!-- Created with Inkscape (http://www.inkscape.org/) -->

<svg
   xmlns:dc="http://purl.org/dc/elements/1.1/"
   xmlns:cc="http://creativecommons.org/ns#"
   xmlns:rdf="http://www.w3.org/1999/02/22-rdf-syntax-ns#"
   xmlns:svg="http://www.w3.org/2000/svg"
   xmlns="http://www.w3.org/2000/svg"
   xmlns:sodipodi="http://sodipodi.sourceforge.net/DTD/sodipodi-0.dtd"
   xmlns:inkscape="http://www.inkscape.org/namespaces/inkscape"
   width="974.18982"
   height="579.88306"
   id="svg4350"
   version="1.1"
   inkscape:version="0.48.4 r9939"
   sodipodi:docname="cloud8t.svg">
  <defs
     id="defs4352" />
  <sodipodi:namedview
     id="base"
     pagecolor="#ffffff"
     bordercolor="#666666"
     borderopacity="1.0"
     inkscape:pageopacity="0.0"
     inkscape:pageshadow="2"
     inkscape:zoom="0.35"
     inkscape:cx="-49.342556"
     inkscape:cy="181.36837"
     inkscape:document-units="px"
     inkscape:current-layer="layer1"
     showgrid="false"
     fit-margin-top="0"
     fit-margin-left="0"
     fit-margin-right="0"
     fit-margin-bottom="0"
     inkscape:window-width="1600"
     inkscape:window-height="838"
     inkscape:window-x="-8"
     inkscape:window-y="-8"
     inkscape:window-maximized="1" />
  <metadata
     id="metadata4355">
    <rdf:RDF>
      <cc:Work
         rdf:about="">
        <dc:format>image/svg+xml</dc:format>
        <dc:type
           rdf:resource="http://purl.org/dc/dcmitype/StillImage" />
        <dc:title />
      </cc:Work>
    </rdf:RDF>
  </metadata>
  <g
     inkscape:label="Layer 1"
     inkscape:groupmode="layer"
     id="layer1"
     transform="translate(467.08602,-133.84751)">
    <path
       style="fill:#ffffff;fill-opacity:1;stroke:none;stroke-width:1.34554361999999990;display:inline;opacity:0.8"
       d="m -87.737922,711.27113 c 29.51151,-5.4061 55.32655,-33.8191 82.3778798,-56.7673 5.75041,-4.8783 18.5830302,-38.8579 25.6202402,-39.4891 8.60034,-0.7713 32.61145,31.6229 40.01185,35.7374 33.774,18.7779 52.115082,34.1305 90.331412,36.6854 62.02919,4.1468 92.01514,-39.67 135.85817,-75.2751 5.2565,-4.2688 13.69974,9.3671 23.54704,19.6873 2.08598,-0.5225 16.31744,13.1878 25.50572,16.6403 18.19591,6.8372 10.4038,6.6278 24.52541,8.0592 61.05731,6.1887 119.57511,-29.2914 139.75931,-87.283 21.1934,-60.8909 -10.3893,-154.76846 -67.731,-186.26976 -27.04627,-14.8582 -48.92597,-11.3776 -86.08278,-7.3354 -16.8705,1.8353 -41.8917,27.8547 -48.71883,6.2466 -18.78679,-59.4606 -14.343,-120.6011 -72.49503,-137.4529 -34.76014,-10.07313 -46.14171,-11.96147 -85.01143,-0.016 -8.19615,2.5188 -47.106402,46.2934 -52.679152,39.568 -9.55791,0.01 -14.67502,-25.0228 -19.81509,-36.9984 -6.01951,-14.02433 -16.02224,-31.26581 -25.83918,-44.5383 C 30.537308,187.7477 3.2167678,168.9965 -9.6735222,160.39345 -31.683902,145.7036 -62.148642,139.46588 -84.374052,135.80697 c -15.832818,-2.60651 -44.136408,-0.86749 -57.609968,2.03419 -120.19103,7.57675 -101.55146,136.14471 -146.18277,195.38371 -1.95271,1.7077 -35.66115,-12.7435 -54.11222,-9.6512 -34.22501,5.7359 -55.75414,17.7856 -78.49985,42.1415 -24.12707,25.835 -38.78028,57.8343 -43.71229,95.45776 -2.36718,18.0578 -2.5169,27.9453 -0.65932,43.5423 4.88591,41.0249 20.4591,74.0975 48.00162,101.9401 14.75635,14.9171 25.17519,22.4516 41.30476,29.8701 19.35173,8.9005 25.51389,10.0954 51.96331,10.0757 23.23224,2.8869 38.55333,-4.9805 58.1331,-12.5823 5.64191,-2.0859 8.54045,-2.5086 10.94126,-1.5958 1.79635,0.6829 7.09871,6.5821 11.78306,13.1092 25.43082,35.4349 61.44424,58.5636 102.03721,65.5306 14.94746,2.5655 39.84988,2.663 53.248268,0.2086 l 0,0 z"
       id="path3043-7"
       inkscape:connector-curvature="0"
       sodipodi:nodetypes="cssssscsssssssscssssccsssssscccssccc" />
    <text
       xml:space="preserve"
       style="font-size:200px;font-style:normal;font-variant:normal;font-weight:normal;font-stretch:normal;line-height:125%;letter-spacing:0px;word-spacing:0px;fill:#000000;fill-opacity:1;stroke:none;font-family:Calibri;-inkscape-font-specification:Calibri"
       x="-378.51465"
       y="536.58771"
       id="text18565"
       sodipodi:linespacing="125%"><tspan
         sodipodi:role="line"
         x="-378.51465"
         y="536.58771"
         id="tspan19801">Business</tspan></text>
    <flowRoot
       xml:space="preserve"
       id="flowRoot18569"
       style="fill:black;stroke:none;stroke-opacity:1;stroke-width:1px;stroke-linejoin:miter;stroke-linecap:butt;fill-opacity:1;font-family:Calibri;font-style:normal;font-weight:normal;font-size:40px;line-height:125%;letter-spacing:0px;word-spacing:0px;-inkscape-font-specification:Calibri;font-stretch:normal;font-variant:normal"><flowRegion
         id="flowRegion18571"><rect
           id="rect18573"
           width="57.142857"
           height="42.857143"
           x="-954.28571"
           y="-140.11694" /></flowRegion><flowPara
         id="flowPara18575" /></flowRoot>  </g>
</svg>
