<?xml version="1.0" encoding="UTF-8" standalone="no"?>
<!-- Created with Inkscape (http://www.inkscape.org/) -->

<svg
   xmlns:dc="http://purl.org/dc/elements/1.1/"
   xmlns:cc="http://creativecommons.org/ns#"
   xmlns:rdf="http://www.w3.org/1999/02/22-rdf-syntax-ns#"
   xmlns:svg="http://www.w3.org/2000/svg"
   xmlns="http://www.w3.org/2000/svg"
   xmlns:sodipodi="http://sodipodi.sourceforge.net/DTD/sodipodi-0.dtd"
   xmlns:inkscape="http://www.inkscape.org/namespaces/inkscape"
   width="952.40625"
   height="553.875"
   id="svg4324"
   version="1.1"
   inkscape:version="0.48.4 r9939"
   sodipodi:docname="cloud7t.svg">
  <defs
     id="defs4326" />
  <sodipodi:namedview
     id="base"
     pagecolor="#ffffff"
     bordercolor="#666666"
     borderopacity="1.0"
     inkscape:pageopacity="0.0"
     inkscape:pageshadow="2"
     inkscape:zoom="0.35"
     inkscape:cx="-48.803576"
     inkscape:cy="162.63782"
     inkscape:document-units="px"
     inkscape:current-layer="layer1"
     showgrid="false"
     fit-margin-top="0"
     fit-margin-left="0"
     fit-margin-right="0"
     fit-margin-bottom="0"
     inkscape:window-width="1600"
     inkscape:window-height="838"
     inkscape:window-x="-8"
     inkscape:window-y="-8"
     inkscape:window-maximized="1" />
  <metadata
     id="metadata4329">
    <rdf:RDF>
      <cc:Work
         rdf:about="">
        <dc:format>image/svg+xml</dc:format>
        <dc:type
           rdf:resource="http://purl.org/dc/dcmitype/StillImage" />
        <dc:title />
      </cc:Work>
    </rdf:RDF>
  </metadata>
  <g
     inkscape:label="Layer 1"
     inkscape:groupmode="layer"
     id="layer1"
     transform="translate(467.625,-141.125)">
    <path
       style="fill:#ffffff;fill-opacity:1;stroke:none;display:inline;opacity:0.8"
       d="m 11.430894,141.63897 c -5.9753004,0 -11.83780043,0.92678 -17.5938004,2.65625 -32.6071296,6.55764 -61.6330296,39.80528 -82.4063296,89.59375 -20.975204,-17.47572 -47.863304,-27.9375 -77.156204,-27.9375 -64.381,0 -117.0454,50.6943 -121.1563,114.78125 -16.8267,-7.6258 -35.8262,-11.9375 -55.9687,-11.9375 -68.6413,0 -124.2813,49.8972 -124.2813,111.4375 0,61.5403 55.64,111.40625 124.2813,111.40625 26.2765,0 50.6437,-7.30449 70.7187,-19.78125 -0.4737,4.1532 -0.7187,8.38298 -0.7187,12.65625 0,63.90724 54.3744,115.71875 121.4374,115.71875 25.991,0 50.0617,-7.77975 69.812604,-21.03125 22.7761,46.68563 53.4982,75.3125 87.3125296,75.3125 5.9285004,0 11.7558004,-0.92205 17.4687004,-2.625 32.6646,-6.48968 61.728,-39.7645 82.531296,-89.625 20.9753,17.47572 47.8632,27.9375 77.1562,27.9375 64.3809,0 117.0454,-50.6943 121.1563,-114.78125 16.8267,7.6258 35.8261,11.9375 55.9687,11.9375 68.6412,0 124.2813,-49.8972 124.2813,-111.4375 0,-61.5403 -55.6401,-111.40625 -124.2813,-111.40625 -26.2766,0 -50.6437,7.30445 -70.7187,19.78125 0.4737,-4.1532 0.7187,-8.38295 0.7187,-12.65625 0,-63.90721 -54.3744,-115.71875 -121.4375,-115.71875 -25.9908,0 -50.0616,7.77975 -69.812496,21.03125 -22.7761,-46.6856 -53.4982,-75.3125 -87.3124,-75.3125 z"
       id="path3321"
       inkscape:connector-curvature="0" />
    <text
       xml:space="preserve"
       style="font-size:200px;font-style:normal;font-variant:normal;font-weight:normal;font-stretch:normal;line-height:125%;letter-spacing:0px;word-spacing:0px;fill:#000000;fill-opacity:1;stroke:none;font-family:Calibri;-inkscape-font-specification:Calibri"
       x="-155.33926"
       y="461.28571"
       id="text18041"
       sodipodi:linespacing="125%"><tspan
         sodipodi:role="line"
         x="-155.33926"
         y="461.28571"
         id="tspan19775">Arts</tspan></text>
  </g>
</svg>
