<?xml version="1.0" encoding="UTF-8" standalone="no"?>
<!-- Created with Inkscape (http://www.inkscape.org/) -->

<svg
   xmlns:dc="http://purl.org/dc/elements/1.1/"
   xmlns:cc="http://creativecommons.org/ns#"
   xmlns:rdf="http://www.w3.org/1999/02/22-rdf-syntax-ns#"
   xmlns:svg="http://www.w3.org/2000/svg"
   xmlns="http://www.w3.org/2000/svg"
   xmlns:sodipodi="http://sodipodi.sourceforge.net/DTD/sodipodi-0.dtd"
   xmlns:inkscape="http://www.inkscape.org/namespaces/inkscape"
   width="1415.2812"
   height="752.40625"
   id="svg4220"
   version="1.1"
   inkscape:version="0.48.4 r9939"
   sodipodi:docname="cloud3t.svg">
  <defs
     id="defs4222" />
  <sodipodi:namedview
     id="base"
     pagecolor="#ffffff"
     bordercolor="#666666"
     borderopacity="1.0"
     inkscape:pageopacity="0.0"
     inkscape:pageshadow="2"
     inkscape:zoom="0.35"
     inkscape:cx="179.79022"
     inkscape:cy="239.07532"
     inkscape:document-units="px"
     inkscape:current-layer="layer1"
     showgrid="false"
     fit-margin-top="0"
     fit-margin-left="0"
     fit-margin-right="0"
     fit-margin-bottom="0"
     inkscape:window-width="1600"
     inkscape:window-height="838"
     inkscape:window-x="-8"
     inkscape:window-y="-8"
     inkscape:window-maximized="1" />
  <metadata
     id="metadata4225">
    <rdf:RDF>
      <cc:Work
         rdf:about="">
        <dc:format>image/svg+xml</dc:format>
        <dc:type
           rdf:resource="http://purl.org/dc/dcmitype/StillImage" />
        <dc:title />
      </cc:Work>
    </rdf:RDF>
  </metadata>
  <g
     inkscape:label="Layer 1"
     inkscape:groupmode="layer"
     id="layer1"
     transform="translate(696.21875,-19.03125)">
    <path
       style="fill:#ffffff;fill-opacity:1;stroke:none;display:inline;opacity:0.8"
       d="m -407.14958,19.5162 c -159.37361,0 -288.5625,115.7574 -288.5625,258.5625 0,88.3368 49.43952,166.326 124.875,212.9688 -37.56961,23.9289 -61.9375,62.3087 -61.9375,105.5937 0,72.54095 68.40563,131.34375 152.78125,131.34375 39.41517,0 75.33879,-12.83553 102.4375,-33.90625 84.23295,47.27402 204.29198,76.84375 337.562501,76.84375 159.514629,0 300.126629,-42.33543 383.000049,-106.71875 38.3662,18.6946 84.487,29.59375 134.125,29.59375 133.3373,0 241.4375,-78.67443 241.4375,-175.71875 0,-65.7316 -49.5944,-123.0213 -123.0313,-153.1562 23.4549,-21.9555 37.3125,-49.009 37.3125,-78.2813 0,-73.375 -86.9802,-132.8437 -194.2812,-132.8437 -33.1041,0 -64.2524,5.6717 -91.5313,15.6562 -49.96662,-37.065 -133.64462,-61.375 -228.46872,-61.375 -113.1169986,0 -210.393489,34.5789 -253.46878,84.1562 -39.50845,-100.6043 -146.46381,-172.7187 -272.25,-172.7187 z"
       id="path3371"
       inkscape:connector-curvature="0" />
    <text
       xml:space="preserve"
       style="font-size:200px;font-style:normal;font-variant:normal;font-weight:normal;font-stretch:normal;line-height:125%;letter-spacing:0px;word-spacing:0px;fill:#000000;fill-opacity:1;stroke:none;font-family:Calibri;-inkscape-font-specification:Calibri"
       x="-307.07593"
       y="472.58035"
       id="text15945"
       sodipodi:linespacing="125%"><tspan
         sodipodi:role="line"
         x="-307.07593"
         y="472.58035"
         id="tspan19705">Science</tspan></text>
  </g>
</svg>
