<?xml version="1.0" encoding="UTF-8" standalone="no"?>
<!-- Created with Inkscape (http://www.inkscape.org/) -->

<svg
   xmlns:dc="http://purl.org/dc/elements/1.1/"
   xmlns:cc="http://creativecommons.org/ns#"
   xmlns:rdf="http://www.w3.org/1999/02/22-rdf-syntax-ns#"
   xmlns:svg="http://www.w3.org/2000/svg"
   xmlns="http://www.w3.org/2000/svg"
   xmlns:sodipodi="http://sodipodi.sourceforge.net/DTD/sodipodi-0.dtd"
   xmlns:inkscape="http://www.inkscape.org/namespaces/inkscape"
   width="1283.7555"
   height="783.73328"
   id="svg4168"
   version="1.1"
   inkscape:version="0.48.4 r9939"
   sodipodi:docname="cloud1t.svg">
  <defs
     id="defs4170" />
  <sodipodi:namedview
     id="base"
     pagecolor="#ffffff"
     bordercolor="#666666"
     borderopacity="1.0"
     inkscape:pageopacity="0.0"
     inkscape:pageshadow="2"
     inkscape:zoom="0.49497475"
     inkscape:cx="415.10942"
     inkscape:cy="263.28355"
     inkscape:document-units="px"
     inkscape:current-layer="layer1"
     showgrid="false"
     fit-margin-top="0"
     fit-margin-left="0"
     fit-margin-right="0"
     fit-margin-bottom="0"
     inkscape:window-width="1600"
     inkscape:window-height="838"
     inkscape:window-x="-8"
     inkscape:window-y="-8"
     inkscape:window-maximized="1" />
  <metadata
     id="metadata4173">
    <rdf:RDF>
      <cc:Work
         rdf:about="">
        <dc:format>image/svg+xml</dc:format>
        <dc:type
           rdf:resource="http://purl.org/dc/dcmitype/StillImage" />
        <dc:title />
      </cc:Work>
    </rdf:RDF>
  </metadata>
  <g
     inkscape:label="Layer 1"
     inkscape:groupmode="layer"
     id="layer1"
     transform="translate(670.44464,-11.912438)">
    <path
       style="fill:#ffffff;fill-opacity:1;stroke:none;display:inline;opacity:0.85"
       d="m 113.7531,792.41541 c -38.8628,-7.1192 -71.0859,-23.2723 -106.7089004,-53.4922 -7.5725,-6.424 -12.7322,-9.4762 -16.0194,-9.4762 -2.6669996,0 -12.8225996,4.4332 -22.5679996,9.8515 -44.4758,24.728 -82.8038,36.0858 -133.12957,39.4502 -81.6842,5.461 -156.6098,-16.8019 -214.3453,-63.6891 -6.9221,-5.6215 -14.4969,-10.6995 -16.8331,-11.2846 -2.7469,-0.6879 -10.8565,1.4197 -22.9562,5.9661 -23.96157,9.0036 -36.73517,12.2717 -55.33147,14.1566 -80.4045,8.1498 -159.2366,-42.1166 -185.8165,-118.4838 -27.9089,-80.1853 6.5937,-168.3715 82.1052,-209.8546 35.6164,-19.5662 71.5166,-25.6142 120.4473,-20.2911 22.2162,2.4169 21.4996,3.0148 30.49007,-25.4402 24.7397,-78.3017 80.9044,-134.00908 157.4829,-156.20068 45.7745,-13.26492 87.341,-12.20781 138.5274,3.52301 10.79307,3.31702 21.27897,6.03338 23.30187,6.03635 5.4989,0.009 10.4655,-6.37321 17.2344,-22.14335 7.9268,-18.46822 21.0991,-41.17297 34.0267,-58.65109 C -41.9997,103.00487 -7.7940004,69.452517 9.1807996,58.123427 38.1654,38.778847 83.5993,19.933188 112.8672,15.114898 c 20.8497,-3.43244 72.297,-2.91428 90.0399,0.90685 34.1196,7.348059 68.2521,21.824109 97.3062,41.268899 29.1058,19.4794 64.76773,57.677883 84.35173,90.351423 16.7901,28.01235 31.5986,67.76 38.4264,103.14097 1.9929,10.32684 4.7312,20.46675 6.0851,22.5331 1.8722,2.85727 6.2073,4.48136 18.1016,6.78153 44.8671,8.67664 75.1926,25.19314 105.1458,57.2667 31.7721,34.02134 51.0685,76.16014 57.5633,125.70524 3.1172,23.7798 3.3144,36.8002 0.8682,57.3395 -6.4341,54.0243 -26.942,97.5765 -63.2118,134.2415 -19.4321,19.6438 -33.1523,29.5658 -54.3928,39.335 -25.4837,11.7207 -33.5985,13.2942 -68.4288,13.2684 l -31.0083,-0.023 -17.719,-6.4051 c -9.7455,-3.5229 -22.2673,-8.0867 -27.8263,-10.1418 -7.4297,-2.7468 -11.2466,-3.3035 -14.4082,-2.1015 -2.3656,0.8994 -9.34813,8.6678 -15.51673,17.2631 -33.489,46.6631 -80.9139,77.1204 -134.3695,86.2951 -19.6838,3.3784 -52.477,3.5069 -70.1209,0.2747 l 0,10e-5 z"
       id="path3043"
       inkscape:connector-curvature="0" />
    <text
       xml:space="preserve"
       style="font-size:200px;font-style:normal;font-variant:normal;font-weight:normal;font-stretch:normal;line-height:125%;letter-spacing:0px;word-spacing:0px;fill:#1a1a1a;fill-opacity:1;stroke:none;font-family:Calibri;-inkscape-font-specification:Calibri"
       x="-216.31699"
       y="494.1156"
       id="text14897"
       sodipodi:linespacing="125%"><tspan
         sodipodi:role="line"
         x="-216.31699"
         y="494.1156"
         style="font-size:200px;fill:#1a1a1a;fill-opacity:1"
         id="tspan19661">News</tspan></text>
    <flowRoot
       xml:space="preserve"
       id="flowRoot19663"
       style="fill:black;stroke:none;stroke-opacity:1;stroke-width:1px;stroke-linejoin:miter;stroke-linecap:butt;fill-opacity:1;font-family:Calibri;font-style:normal;font-weight:normal;font-size:40px;line-height:125%;letter-spacing:0px;word-spacing:0px;-inkscape-font-specification:Calibri;font-stretch:normal;font-variant:normal"><flowRegion
         id="flowRegion19665"><rect
           id="rect19667"
           width="438.40619"
           height="208.09142"
           x="163.64471"
           y="448.36264" /></flowRegion><flowPara
         id="flowPara19669" /></flowRoot>  </g>
</svg>
